<svg version="1" xmlns="http://www.w3.org/2000/svg" width="933.333" height="933.333" viewBox="0 0 700.000000 700.000000"><path d="M18.9 58.5c-.1.5-.2 54.9-.3 120.8-.1 77.1.2 120.1.9 120.5.5.3 65.2.6 143.7.6l142.8.1v-243H162.5c-95.2 0-143.5.3-143.6 1zm190.2 81.9c.1.6.2 18.1.2 38.9.1 24.3-.2 38.1-.8 38.6-.5.4-21.7.7-47 .7l-46-.1-.2-38.5c-.1-21.2 0-39 .2-39.6.4-1.4 93.5-1.5 93.6 0zM400.4 58.5c-.2.5-.3 55.2-.1 121.5l.2 120.4h287l.1-121.2c0-66.7-.2-121.3-.5-121.3-.3-.1-64.9-.2-143.5-.3-94.8-.1-143 .2-143.2.9zm190.4 120.4l-.3 39.6H497v-79.1h94l-.2 39.5zM19.2 380.5c-1.1 1.7-.8 240.6.3 241.3.6.4 65.2.7 143.7.7H306v-243H162.9c-94.7 0-143.3.3-143.7 1zm189.9 82.4c.7 11.7.2 76.4-.6 76.9-.5.4-21.6.7-46.8.7-45 0-45.8 0-46.2-2-.4-2.3-.4-75.7.1-76.5.1-.3 21.2-.6 46.8-.6 41.8-.1 46.6.1 46.7 1.5zM400.4 380.1c-.2.3-.3 54.8-.3 121.2 0 92.9.3 120.6 1.2 120.9.7.2 22.4.4 48.2.3h47l.5-60.5.5-60.4 21.5-.1c11.8-.1 22.1.1 22.8.3.9.3 1.2 5.3 1.2 20.3V542l72.3-.2 72.2-.3v-162h-24.2c-15.7 0-24.3.3-24.4 1-.1.5-.2 9.5-.3 20l-.1 19h-93.9v-19.8c0-10.8-.2-19.8-.5-19.8-2.1-.5-143.4-.3-143.7.2z"/><path d="M544.7 580.8c-1.6.3-1.7 2.2-1.5 21l.3 20.6 24.3.1c15.4 0 24.2-.4 24.3-1 .4-4.9.3-38.9-.2-39.7-.6-.9-43-1.8-47.2-1zM640.9 581l-2.4.5v19.7c.1 10.8.4 20 .8 20.4.7.7 43.9 1.3 46.8.6 1.3-.3 1.5-3 1.5-20.9l-.1-20.6-22.1-.1c-12.1-.1-23.1.1-24.5.4z"/></svg>