<?xml version="1.0" encoding="UTF-8" standalone="no"?>
<svg
   xmlns:dc="http://purl.org/dc/elements/1.1/"
   xmlns:cc="http://creativecommons.org/ns#"
   xmlns:rdf="http://www.w3.org/1999/02/22-rdf-syntax-ns#"
   xmlns:svg="http://www.w3.org/2000/svg"
   xmlns="http://www.w3.org/2000/svg"
   xmlns:sodipodi="http://sodipodi.sourceforge.net/DTD/sodipodi-0.dtd"
   xmlns:inkscape="http://www.inkscape.org/namespaces/inkscape"
   width="100"
   height="100"
   viewBox="0 0 100 100"
   version="1.1"
   id="svg8"
   inkscape:version="1.0 (4035a4fb49, 2020-05-01)"
   sodipodi:docname="archives.svg">
  <defs
     id="defs2" />
  <sodipodi:namedview
     id="base"
     pagecolor="#ffffff"
     bordercolor="#666666"
     borderopacity="1.0"
     inkscape:pageopacity="0.0"
     inkscape:pageshadow="2"
     inkscape:zoom="4"
     inkscape:cx="59.729829"
     inkscape:cy="58.223043"
     inkscape:document-units="mm"
     inkscape:current-layer="layer1"
     inkscape:document-rotation="0"
     showgrid="true"
     units="px"
     inkscape:window-width="1366"
     inkscape:window-height="705"
     inkscape:window-x="-8"
     inkscape:window-y="-8"
     inkscape:window-maximized="1">
    <inkscape:grid
       type="xygrid"
       id="grid10"
       spacingx="10"
       spacingy="10" />
  </sodipodi:namedview>
  <metadata
     id="metadata5">
    <rdf:RDF>
      <cc:Work
         rdf:about="">
        <dc:format>image/svg+xml</dc:format>
        <dc:type
           rdf:resource="http://purl.org/dc/dcmitype/StillImage" />
        <dc:title></dc:title>
      </cc:Work>
    </rdf:RDF>
  </metadata>
  <g
     inkscape:label="Layer 1"
     inkscape:groupmode="layer"
     id="layer1">
    <path
       id="path12"
       d="m 15.870633,84.367399 c 0,2.738713 2.212627,4.951345 4.951338,4.951345 h 59.416064 c 2.73871,0 4.951338,-2.212632 4.951338,-4.951345 V 39.805356 H 15.870633 Z M 40.627328,51.564788 c 0,-1.02121 0.835542,-1.856752 1.856751,-1.856752 h 16.091856 c 1.021211,0 1.856753,0.835542 1.856753,1.856752 v 1.237834 c 0,1.021214 -0.835542,1.856751 -1.856753,1.856751 H 42.484079 c -1.021209,0 -1.856751,-0.835537 -1.856751,-1.856751 z M 85.189373,20 h -69.31874 c -2.738709,0 -4.951338,2.212629 -4.951338,4.951338 v 7.427009 c 0,1.361619 1.114052,2.475671 2.475672,2.475671 h 74.270074 c 1.361627,0 2.475676,-1.114052 2.475676,-2.475671 V 24.951338 C 90.140717,22.212629 87.928083,20 85.189373,20 Z"
       style="stroke-width:0.154728" />
  </g>
</svg>
