<?xml version="1.0" encoding="UTF-8" standalone="no"?>
<svg
   xmlns:dc="http://purl.org/dc/elements/1.1/"
   xmlns:cc="http://creativecommons.org/ns#"
   xmlns:rdf="http://www.w3.org/1999/02/22-rdf-syntax-ns#"
   xmlns:svg="http://www.w3.org/2000/svg"
   xmlns="http://www.w3.org/2000/svg"
   xmlns:sodipodi="http://sodipodi.sourceforge.net/DTD/sodipodi-0.dtd"
   xmlns:inkscape="http://www.inkscape.org/namespaces/inkscape"
   inkscape:version="1.0 (4035a4fb49, 2020-05-01)"
   height="100"
   width="100"
   sodipodi:docname="spinner.svg"
   id="svg4"
   version="1.1"
   viewBox="0 0 100 100">
  <metadata
     id="metadata10">
    <rdf:RDF>
      <cc:Work
         rdf:about="">
        <dc:format>image/svg+xml</dc:format>
        <dc:type
           rdf:resource="http://purl.org/dc/dcmitype/StillImage" />
        <dc:title></dc:title>
      </cc:Work>
    </rdf:RDF>
  </metadata>
  <defs
     id="defs8" />
  <sodipodi:namedview
     inkscape:current-layer="svg4"
     inkscape:window-maximized="1"
     inkscape:window-y="-8"
     inkscape:window-x="-8"
     inkscape:cy="49.502583"
     inkscape:cx="55.493627"
     inkscape:zoom="3.875"
     showgrid="true"
     id="namedview6"
     inkscape:window-height="705"
     inkscape:window-width="1366"
     inkscape:pageshadow="2"
     inkscape:pageopacity="0"
     guidetolerance="10"
     gridtolerance="10"
     objecttolerance="10"
     borderopacity="1"
     bordercolor="#666666"
     pagecolor="#ffffff">
    <inkscape:grid
       spacingy="10"
       spacingx="10"
       id="grid12"
       type="xygrid" />
  </sodipodi:namedview>
  <path
     style="stroke-width:0.156458"
     id="path2"
     d="m 57.627563,17.978257 c 0,4.147687 -3.362268,7.509955 -7.509955,7.509955 -4.147683,0 -7.509954,-3.362268 -7.509954,-7.509955 0,-4.147685 3.362271,-7.509955 7.509954,-7.509955 4.147687,0 7.509955,3.36227 7.509955,7.509955 z m -7.509955,57.576321 c -4.147683,0 -7.509954,3.362272 -7.509954,7.509956 0,4.147687 3.362271,7.509957 7.509954,7.509957 4.147687,0 7.509955,-3.36227 7.509955,-7.509957 0,-4.147684 -3.362268,-7.509956 -7.509955,-7.509956 z m 32.54314,-32.543137 c -4.147685,0 -7.509956,3.36227 -7.509956,7.509955 0,4.147685 3.362271,7.509953 7.509956,7.509953 4.147686,0 7.509957,-3.362268 7.509957,-7.509953 0,-4.147685 -3.362271,-7.509955 -7.509957,-7.509955 z m -57.576322,7.509955 c 0,-4.147685 -3.362269,-7.509955 -7.509954,-7.509955 -4.147687,0 -7.509956,3.36227 -7.509956,7.509955 0,4.147685 3.362269,7.509953 7.509956,7.509953 4.147685,0 7.509954,-3.362268 7.509954,-7.509953 z m 2.021742,15.501486 c -4.147686,0 -7.509954,3.362268 -7.509954,7.509955 0,4.147686 3.362268,7.509954 7.509954,7.509954 4.147686,0 7.509955,-3.362268 7.509955,-7.509954 0,-4.147529 -3.362425,-7.509955 -7.509955,-7.509955 z m 46.022882,0 c -4.147686,0 -7.509955,3.362268 -7.509955,7.509955 0,4.147686 3.362269,7.509954 7.509955,7.509954 4.147687,0 7.509955,-3.362268 7.509955,-7.509954 0,-4.147529 -3.362268,-7.509955 -7.509955,-7.509955 z M 27.106168,20 c -4.147686,0 -7.509954,3.362268 -7.509954,7.509955 0,4.147685 3.362268,7.509955 7.509954,7.509955 4.147686,0 7.509955,-3.36227 7.509955,-7.509955 C 34.616123,23.362268 31.253698,20 27.106168,20 Z" />
</svg>
